<svg width="180" height="20" viewBox="0 0 180 20" fill="none" xmlns="http://www.w3.org/2000/svg">
<path d="M9.61914 3.87695H9.73633L12.9785 15H14.6387L18.4766 0.908203H16.6406L13.8379 12.3633H13.7207L10.5664 0.908203H8.78906L5.63477 12.3633H5.51758L2.71484 0.908203H0.878906L4.7168 15H6.37695L9.61914 3.87695ZM21.0352 15H22.7148V8.76953C22.7148 6.99219 23.75 5.80078 25.6348 5.80078C27.2266 5.80078 28.0664 6.72852 28.0664 8.59375V15H29.7461V8.18359C29.7461 5.71289 28.3398 4.28711 26.1133 4.28711C24.502 4.28711 23.3984 4.9707 22.8711 6.13281H22.7148V0.292969H21.0352V15ZM36.0547 13.7109C34.834 13.7109 33.9258 13.0859 33.9258 12.0117C33.9258 10.957 34.6289 10.4004 36.2305 10.293L39.0625 10.1074V11.0742C39.0625 12.5781 37.7832 13.7109 36.0547 13.7109ZM35.7422 15.1855C37.1484 15.1855 38.3008 14.5703 38.9844 13.4473H39.1406V15H40.7422V7.79297C40.7422 5.60547 39.3066 4.28711 36.7383 4.28711C34.4922 4.28711 32.832 5.40039 32.6074 7.08984H34.3066C34.541 6.25977 35.4199 5.78125 36.6797 5.78125C38.252 5.78125 39.0625 6.49414 39.0625 7.79297V8.75L36.0254 8.93555C33.5742 9.08203 32.1875 10.166 32.1875 12.0508C32.1875 13.9746 33.7012 15.1855 35.7422 15.1855ZM44.5508 1.74805V4.47266H42.8516V5.87891H44.5508V12.2656C44.5508 14.2773 45.4199 15.0781 47.5879 15.0781C47.9199 15.0781 48.2422 15.0391 48.5742 14.9805V13.5645C48.2617 13.5938 48.0957 13.6035 47.793 13.6035C46.6992 13.6035 46.2305 13.0762 46.2305 11.8359V5.87891H48.5742V4.47266H46.2305V1.74805H44.5508ZM52.9004 6.17188L54.4727 0.908203H52.5684L51.6797 6.17188H52.9004ZM55.9082 7.35352C55.9082 8.87695 56.8066 9.72656 58.7793 10.2051L60.5859 10.6445C61.709 10.918 62.2559 11.4062 62.2559 12.1289C62.2559 13.0957 61.2402 13.7695 59.8242 13.7695C58.4766 13.7695 57.6367 13.2031 57.3535 12.3145H55.625C55.8105 14.0625 57.4219 15.1855 59.7656 15.1855C62.1582 15.1855 63.9844 13.8867 63.9844 12.002C63.9844 10.4883 63.0273 9.62891 61.0449 9.15039L59.4238 8.75977C58.1836 8.45703 57.5977 8.00781 57.5977 7.28516C57.5977 6.34766 58.5742 5.71289 59.8242 5.71289C61.0938 5.71289 61.9141 6.26953 62.1387 7.10938H63.7988C63.5742 5.38086 62.041 4.28711 59.834 4.28711C57.5977 4.28711 55.9082 5.60547 55.9082 7.35352ZM72.3633 15H74.043V8.76953C74.043 6.99219 75.0781 5.80078 76.9629 5.80078C78.5547 5.80078 79.3945 6.72852 79.3945 8.59375V15H81.0742V8.18359C81.0742 5.71289 79.668 4.28711 77.4414 4.28711C75.8301 4.28711 74.7266 4.9707 74.1992 6.13281H74.043V0.292969H72.3633V15ZM87.3828 13.7109C86.1621 13.7109 85.2539 13.0859 85.2539 12.0117C85.2539 10.957 85.957 10.4004 87.5586 10.293L90.3906 10.1074V11.0742C90.3906 12.5781 89.1113 13.7109 87.3828 13.7109ZM87.0703 15.1855C88.4766 15.1855 89.6289 14.5703 90.3125 13.4473H90.4688V15H92.0703V7.79297C92.0703 5.60547 90.6348 4.28711 88.0664 4.28711C85.8203 4.28711 84.1602 5.40039 83.9355 7.08984H85.6348C85.8691 6.25977 86.748 5.78125 88.0078 5.78125C89.5801 5.78125 90.3906 6.49414 90.3906 7.79297V8.75L87.3535 8.93555C84.9023 9.08203 83.5156 10.166 83.5156 12.0508C83.5156 13.9746 85.0293 15.1855 87.0703 15.1855ZM100.303 4.28711C98.8672 4.28711 97.6074 5.01953 96.9336 6.23047H96.7773V4.47266H95.1758V18.5156H96.8555V13.418H97.0117C97.5879 14.5312 98.7988 15.1855 100.303 15.1855C102.979 15.1855 104.727 13.0273 104.727 9.73633C104.727 6.42578 102.988 4.28711 100.303 4.28711ZM99.9023 13.6719C98.0078 13.6719 96.8066 12.1484 96.8066 9.73633C96.8066 7.31445 98.0078 5.80078 99.9121 5.80078C101.836 5.80078 102.988 7.27539 102.988 9.73633C102.988 12.1973 101.836 13.6719 99.9023 13.6719ZM112.49 4.28711C111.055 4.28711 109.795 5.01953 109.121 6.23047H108.965V4.47266H107.363V18.5156H109.043V13.418H109.199C109.775 14.5312 110.986 15.1855 112.49 15.1855C115.166 15.1855 116.914 13.0273 116.914 9.73633C116.914 6.42578 115.176 4.28711 112.49 4.28711ZM112.09 13.6719C110.195 13.6719 108.994 12.1484 108.994 9.73633C108.994 7.31445 110.195 5.80078 112.1 5.80078C114.023 5.80078 115.176 7.27539 115.176 9.73633C115.176 12.1973 114.023 13.6719 112.09 13.6719ZM123.75 5.77148C125.42 5.77148 126.533 7.00195 126.572 8.86719H120.771C120.898 7.00195 122.07 5.77148 123.75 5.77148ZM126.523 12.2754C126.084 13.2031 125.166 13.7012 123.809 13.7012C122.021 13.7012 120.859 12.3828 120.771 10.3027V10.2246H128.34V9.58008C128.34 6.30859 126.611 4.28711 123.77 4.28711C120.879 4.28711 119.023 6.43555 119.023 9.74609C119.023 13.0762 120.85 15.1855 123.77 15.1855C126.074 15.1855 127.695 14.082 128.203 12.2754H126.523ZM130.977 15H132.656V8.76953C132.656 6.92383 133.74 5.80078 135.42 5.80078C137.1 5.80078 137.9 6.69922 137.9 8.59375V15H139.58V8.18359C139.58 5.68359 138.262 4.28711 135.898 4.28711C134.287 4.28711 133.262 4.9707 132.734 6.13281H132.578V4.47266H130.977V15ZM142.695 15H144.375V4.47266H142.695V15ZM143.535 2.33398C144.18 2.33398 144.707 1.80664 144.707 1.16211C144.707 0.517578 144.18 -0.00976562 143.535 -0.00976562C142.891 -0.00976562 142.363 0.517578 142.363 1.16211C142.363 1.80664 142.891 2.33398 143.535 2.33398ZM147.578 15H149.258V8.76953C149.258 6.92383 150.342 5.80078 152.021 5.80078C153.701 5.80078 154.502 6.69922 154.502 8.59375V15H156.182V8.18359C156.182 5.68359 154.863 4.28711 152.5 4.28711C150.889 4.28711 149.863 4.9707 149.336 6.13281H149.18V4.47266H147.578V15ZM163.516 13.3594C161.562 13.3594 160.469 11.875 160.469 9.58008C160.469 7.28516 161.562 5.80078 163.516 5.80078C165.459 5.80078 166.641 7.28516 166.641 9.58008C166.641 11.875 165.469 13.3594 163.516 13.3594ZM163.594 19.043C166.465 19.043 168.281 17.5391 168.281 15.1855V4.47266H166.68V6.14258H166.523C165.918 5.00977 164.619 4.28711 163.145 4.28711C160.439 4.28711 158.73 6.42578 158.73 9.58008C158.73 12.7344 160.42 14.8438 163.145 14.8438C164.59 14.8438 165.781 14.1895 166.445 13.0273H166.602V15.0977C166.602 16.6504 165.479 17.5781 163.594 17.5781C162.08 17.5781 161.143 17.0215 160.957 16.1621H159.18C159.434 17.9004 161.055 19.043 163.594 19.043ZM170.645 4.58984H172.314C172.422 3.19336 173.359 2.32422 174.834 2.32422C176.289 2.32422 177.227 3.21289 177.227 4.42383C177.227 5.46875 176.787 6.08398 175.654 6.77734C174.316 7.57812 173.691 8.45703 173.701 9.74609V10.6445H175.41V10.0098C175.41 8.98438 175.762 8.4375 177.002 7.70508C178.252 6.95312 179.043 5.86914 179.043 4.33594C179.043 2.32422 177.363 0.800781 174.902 0.800781C172.158 0.800781 170.752 2.48047 170.645 4.58984ZM174.688 15.1758C175.479 15.1758 176.035 14.6094 176.035 13.8184C176.035 13.0176 175.479 12.4512 174.688 12.4512C173.896 12.4512 173.33 13.0176 173.33 13.8184C173.33 14.6094 173.896 15.1758 174.688 15.1758Z" fill="#6E767D"/>
</svg>
